<?xml version="1.0" encoding="utf-8"?>
<!-- Generator: Adobe Illustrator 19.0.0, SVG Export Plug-In . SVG Version: 6.00 Build 0)  -->
<svg version="1.1" id="Layer_1" xmlns="http://www.w3.org/2000/svg" xmlns:xlink="http://www.w3.org/1999/xlink" x="0px" y="0px"
	 viewBox="-107 26 85 30" style="enable-background:new -107 26 85 30;" xml:space="preserve">
<style type="text/css">
	.st0{fill:#7F27FF;}
	.st1{fill:#FFFFFF;}
	.st2{fill:none;stroke:#FFFFFF;}
</style>
<title>Group 2</title>
<desc>Created with Sketch.</desc>
<g id="Page-1">
	<g id="Group-2">
		<circle id="Oval" class="st0" cx="-92" cy="41" r="15"/>
		<g id="Group" transform="translate(7.000000, 7.000000)">
			<path id="Combined-Shape" class="st1" d="M-99.5,32h-6.5v6.5c0,1.4,1.1,2.5,2.5,2.5h4V32z M-98.5,32h6.5v6.5
				c0,1.4-1.1,2.5-2.5,2.5h-4V32z"/>
			<path id="Combined-Shape_1_" class="st1" d="M-98.5,31h6.3c0.7,0,1.2-0.6,1.2-1.2l0,0c0-0.7-0.6-1.2-1.2-1.2h-13.5l0,0
				c-0.7,0-1.2,0.6-1.2,1.2l0,0l0,0c0,0.7,0.6,1.2,1.2,1.2h6.2v-1.6h1V31z"/>
			<path id="Path-2" class="st2" d="M-98.3,29c1.4-2.5,2.5-3.3,3.3-2.5c0.8,0.8,0.3,1.6-1.4,2.5H-98.3z"/>
			<path id="Path-2_1_" class="st2" d="M-99.7,29c-1.4-2.5-2.5-3.3-3.3-2.5c-0.8,0.8-0.3,1.6,1.4,2.5H-99.7z"/>
		</g>
		<path id="Gifto" class="st1" d="M-51.4,42.5v-1.3h-5.4v1.5h3.8v0.2c0,2.2-1.6,3.8-4,3.8c-2.7,0-4.4-2.1-4.4-5.5
			c0-3.3,1.7-5.3,4.4-5.3c1.9,0,3.3,1,3.8,2.8h1.8c-0.5-2.7-2.7-4.4-5.6-4.4c-3.7,0-6.1,2.7-6.1,6.8c0,4.3,2.4,7,6.1,7
			C-53.5,48.2-51.4,46.1-51.4,42.5z M-48.8,48h1.6V38h-1.6V48z M-48,36.4c0.6,0,1-0.5,1-1c0-0.6-0.5-1-1-1c-0.6,0-1,0.5-1,1
			C-49,35.9-48.5,36.4-48,36.4z M-43.7,48h1.6v-8.7h1.9V38h-1.9v-0.9c0-0.9,0.4-1.3,1.2-1.3c0.3,0,0.5,0,0.8,0.1v-1.3
			c-0.3-0.1-0.6-0.1-0.9-0.1c-1.9,0-2.7,0.8-2.7,2.7V38h-1.4v1.3h1.4V48z M-37.3,35.7V38h-1.4v1.3h1.4v6.1c0,1.9,0.7,2.7,2.5,2.7
			c0.4,0,0.8,0,1-0.1v-1.4c-0.1,0-0.5,0-0.7,0c-0.9,0-1.2-0.4-1.2-1.3v-6h1.9V38h-1.9v-2.3H-37.3z M-27.2,48.1c-2.8,0-4.6-2-4.6-5.1
			c0-3.1,1.8-5.1,4.6-5.1s4.6,2,4.6,5.1C-22.6,46.1-24.4,48.1-27.2,48.1z M-27.2,46.7c1.9,0,3-1.4,3-3.7c0-2.3-1.1-3.7-3-3.7
			s-3,1.4-3,3.7S-29.1,46.7-27.2,46.7z"/>
	</g>
</g>
</svg>
